<svg width="474" height="106" viewBox="0 0 474 106" fill="none" xmlns="http://www.w3.org/2000/svg">
<path d="M142.892 37.4223V40.9297H135.915V63.6337H131.615V40.9297H124.6V37.4223H142.892Z" fill="white"/>
<path d="M157.995 42.5137C159.579 42.5137 160.987 42.8532 162.219 43.532C163.476 44.2109 164.456 45.2166 165.16 46.5492C165.89 47.8817 166.254 49.4909 166.254 51.3766V63.6337H161.992V52.0177C161.992 50.1572 161.527 48.7366 160.597 47.756C159.667 46.7503 158.397 46.2475 156.788 46.2475C155.179 46.2475 153.896 46.7503 152.941 47.756C152.011 48.7366 151.546 50.1572 151.546 52.0177V63.6337H147.246V35.7252H151.546V45.2669C152.275 44.3869 153.192 43.708 154.299 43.2303C155.43 42.7526 156.662 42.5137 157.995 42.5137Z" fill="white"/>
<path d="M190.784 52.7343C190.784 53.5137 190.734 54.2177 190.633 54.8463H174.755C174.881 56.5057 175.497 57.8383 176.603 58.844C177.71 59.8497 179.067 60.3526 180.677 60.3526C182.99 60.3526 184.624 59.3846 185.579 57.4486H190.218C189.59 59.3595 188.446 60.9309 186.786 62.1629C185.152 63.3697 183.115 63.9732 180.677 63.9732C178.69 63.9732 176.905 63.5332 175.321 62.6532C173.762 61.748 172.53 60.4909 171.625 58.8817C170.745 57.2475 170.305 55.3617 170.305 53.2246C170.305 51.0875 170.733 49.2143 171.587 47.6052C172.467 45.9709 173.687 44.7137 175.246 43.8337C176.83 42.9537 178.64 42.5137 180.677 42.5137C182.638 42.5137 184.385 42.9412 185.919 43.796C187.453 44.6509 188.647 45.8577 189.502 47.4166C190.357 48.9503 190.784 50.7229 190.784 52.7343ZM186.296 51.3766C186.271 49.7926 185.705 48.5229 184.599 47.5675C183.493 46.612 182.122 46.1343 180.488 46.1343C179.005 46.1343 177.735 46.612 176.679 47.5675C175.623 48.4977 174.994 49.7675 174.793 51.3766H186.296Z" fill="white"/>
<path d="M220.614 58.2783H209.639L207.754 63.6337H203.266L212.657 37.3846H217.635L227.026 63.6337H222.5L220.614 58.2783ZM219.407 54.7709L215.146 42.5892L210.846 54.7709H219.407Z" fill="white"/>
<path d="M239.821 46.3606H235.974V63.6337H231.637V46.3606H229.185V42.8532H231.637V41.3823C231.637 38.9937 232.265 37.2589 233.523 36.1777C234.805 35.0715 236.804 34.5183 239.519 34.5183V38.1012C238.212 38.1012 237.294 38.3526 236.766 38.8555C236.238 39.3332 235.974 40.1755 235.974 41.3823V42.8532H239.821V46.3606Z" fill="white"/>
<path d="M247.931 45.8703C248.559 44.8143 249.389 43.9972 250.42 43.4189C251.476 42.8155 252.72 42.5137 254.153 42.5137V46.964H253.06C251.375 46.964 250.093 47.3915 249.213 48.2463C248.358 49.1012 247.931 50.5846 247.931 52.6966V63.6337H243.631V42.8532H247.931V45.8703Z" fill="white"/>
<path d="M260.293 40.1C259.513 40.1 258.86 39.836 258.332 39.308C257.804 38.78 257.54 38.1263 257.54 37.3469C257.54 36.5675 257.804 35.9137 258.332 35.3857C258.86 34.8577 259.513 34.5937 260.293 34.5937C261.047 34.5937 261.688 34.8577 262.216 35.3857C262.744 35.9137 263.008 36.5675 263.008 37.3469C263.008 38.1263 262.744 38.78 262.216 39.308C261.688 39.836 261.047 40.1 260.293 40.1ZM262.405 42.8532V63.6337H258.105V42.8532H262.405Z" fill="white"/>
<path d="M266.617 53.2246C266.617 51.0875 267.044 49.2143 267.899 47.6052C268.779 45.9709 269.986 44.7137 271.519 43.8337C273.053 42.9537 274.813 42.5137 276.799 42.5137C279.314 42.5137 281.388 43.1172 283.022 44.324C284.682 45.5057 285.801 47.2029 286.379 49.4155H281.74C281.363 48.3846 280.759 47.58 279.93 47.0017C279.1 46.4235 278.057 46.1343 276.799 46.1343C275.039 46.1343 273.631 46.7629 272.575 48.02C271.545 49.252 271.029 50.9869 271.029 53.2246C271.029 55.4623 271.545 57.2097 272.575 58.4669C273.631 59.724 275.039 60.3526 276.799 60.3526C279.289 60.3526 280.935 59.2589 281.74 57.0715H286.379C285.775 59.1835 284.644 60.868 282.985 62.1252C281.325 63.3572 279.263 63.9732 276.799 63.9732C274.813 63.9732 273.053 63.5332 271.519 62.6532C269.986 61.748 268.779 60.4909 267.899 58.8817C267.044 57.2475 266.617 55.3617 266.617 53.2246Z" fill="white"/>
<path d="M289.23 53.1492C289.23 51.0623 289.658 49.2143 290.513 47.6052C291.393 45.996 292.574 44.7515 294.058 43.8715C295.566 42.9663 297.226 42.5137 299.036 42.5137C300.67 42.5137 302.091 42.8406 303.298 43.4943C304.53 44.1229 305.51 44.9149 306.24 45.8703V42.8532H310.577V63.6337H306.24V60.5412C305.51 61.5217 304.517 62.3389 303.26 62.9926C302.003 63.6463 300.57 63.9732 298.961 63.9732C297.176 63.9732 295.541 63.5206 294.058 62.6155C292.574 61.6852 291.393 60.4029 290.513 58.7686C289.658 57.1092 289.23 55.236 289.23 53.1492ZM306.24 53.2246C306.24 51.7915 305.938 50.5469 305.334 49.4909C304.756 48.4349 303.989 47.6303 303.034 47.0772C302.078 46.524 301.048 46.2475 299.941 46.2475C298.835 46.2475 297.804 46.524 296.849 47.0772C295.893 47.6052 295.114 48.3972 294.51 49.4532C293.932 50.484 293.643 51.716 293.643 53.1492C293.643 54.5823 293.932 55.8395 294.51 56.9206C295.114 58.0017 295.893 58.8315 296.849 59.4097C297.829 59.9629 298.86 60.2395 299.941 60.2395C301.048 60.2395 302.078 59.9629 303.034 59.4097C303.989 58.8566 304.756 58.052 305.334 56.996C305.938 55.9149 306.24 54.6577 306.24 53.2246Z" fill="white"/>
<path d="M330.32 37.4223V63.6337H326.021V37.4223H330.32Z" fill="white"/>
<path d="M360.206 63.6337L350.061 51.9046V63.6337H345.762V37.4223H350.061V49.3777L360.244 37.4223H365.637L354.247 50.5469L365.826 63.6337H360.206Z" fill="white"/>
<path d="M380.112 42.5137C381.747 42.5137 383.205 42.8532 384.487 43.532C385.795 44.2109 386.813 45.2166 387.542 46.5492C388.271 47.8817 388.636 49.4909 388.636 51.3766V63.6337H384.374V52.0177C384.374 50.1572 383.909 48.7366 382.979 47.756C382.048 46.7503 380.779 46.2475 379.17 46.2475C377.56 46.2475 376.278 46.7503 375.323 47.756C374.392 48.7366 373.927 50.1572 373.927 52.0177V63.6337H369.628V42.8532H373.927V45.2292C374.631 44.3743 375.524 43.708 376.605 43.2303C377.711 42.7526 378.88 42.5137 380.112 42.5137Z" fill="white"/>
<path d="M403.134 63.9732C401.173 63.9732 399.4 63.5332 397.816 62.6532C396.232 61.748 394.987 60.4909 394.082 58.8817C393.177 57.2475 392.725 55.3617 392.725 53.2246C392.725 51.1126 393.19 49.2395 394.12 47.6052C395.05 45.9709 396.32 44.7137 397.929 43.8337C399.538 42.9537 401.336 42.5137 403.322 42.5137C405.309 42.5137 407.106 42.9537 408.715 43.8337C410.325 44.7137 411.594 45.9709 412.525 47.6052C413.455 49.2395 413.92 51.1126 413.92 53.2246C413.92 55.3366 413.442 57.2097 412.487 58.844C411.531 60.4783 410.224 61.748 408.565 62.6532C406.93 63.5332 405.12 63.9732 403.134 63.9732ZM403.134 60.2395C404.24 60.2395 405.271 59.9755 406.226 59.4475C407.207 58.9195 407.999 58.1275 408.602 57.0715C409.206 56.0155 409.507 54.7332 409.507 53.2246C409.507 51.716 409.218 50.4463 408.64 49.4155C408.062 48.3595 407.295 47.5675 406.339 47.0395C405.384 46.5115 404.353 46.2475 403.247 46.2475C402.141 46.2475 401.11 46.5115 400.154 47.0395C399.224 47.5675 398.482 48.3595 397.929 49.4155C397.376 50.4463 397.099 51.716 397.099 53.2246C397.099 55.4623 397.665 57.1972 398.797 58.4292C399.953 59.636 401.399 60.2395 403.134 60.2395Z" fill="white"/>
<path d="M446.079 42.8532L439.63 63.6337H435.104L430.918 48.284L426.731 63.6337H422.206L415.719 42.8532H420.094L424.431 59.5606L428.843 42.8532H433.331L437.555 59.4852L441.855 42.8532H446.079Z" fill="white"/>
<path d="M52.8582 105.716C82.051 105.716 105.716 82.051 105.716 52.8582C105.716 23.6654 82.051 0 52.8582 0C23.6654 0 0 23.6654 0 52.8582C0 82.051 23.6654 105.716 52.8582 105.716Z" fill="white"/>
<path d="M18.463 63.4299H16.1815V45.8349H9.96753V43.8083H24.677V45.8349H18.463V63.4299Z" fill="#061901"/>
<path d="M66.2011 63.4299V43.8083H68.4827V63.4299H66.2011Z" fill="#061901"/>
<path d="M98.6328 63.4299H95.9486L88.7952 53.9144L86.7418 55.7397V63.4299H84.4602V43.8083H86.7418V53.5386L95.6399 43.8083H98.3376L90.446 52.3307L98.6328 63.4299Z" fill="#061901"/>
<path d="M45.5131 41.8793C45.3842 41.9271 44.9689 42.0085 44.8918 42.1095C44.775 42.2624 45.0385 42.4161 44.9668 42.5822C44.8334 42.8913 44.4514 42.8391 44.2413 42.7629C43.4227 42.4657 42.6314 41.9015 41.8616 41.4896C42.3948 40.9605 42.0103 40.236 41.3184 40.2192C40.9893 40.2113 40.6302 40.3013 40.3042 40.3403C39.4876 40.4378 38.4918 40.4034 37.7057 40.6694C37.1922 40.8432 37.1141 41.2705 36.8494 41.6553C36.5705 42.0607 36.1831 42.423 35.8606 42.7945C35.3614 43.3696 34.7986 43.8987 34.4623 44.5842C33.7856 45.9636 33.6005 47.4612 34.4095 48.8396C35.2249 50.2289 36.7045 50.8678 38.2775 50.799C39.1672 50.7601 40.0947 50.1823 40.9586 50.6477C41.3046 50.8342 41.5702 51.1484 41.6914 51.5229C41.8095 51.8878 41.6688 52.2007 41.7162 52.5548C41.8014 53.1916 42.4876 53.5353 42.7312 54.0879C42.8915 54.4513 42.9618 54.986 43.0183 55.3796C43.121 56.0958 42.7261 56.3527 42.4995 56.9471C42.2308 57.6522 42.785 58.2808 43.0525 58.8946C43.3983 59.6881 43.5165 60.5676 43.8956 61.3415C44.287 62.1401 44.6087 63.4402 45.6781 63.2664C46.5619 63.1228 47.8689 61.9917 48.2468 61.1994C48.3847 60.9103 48.3344 60.4156 48.4778 60.1786C48.5872 59.9978 48.9359 59.8703 49.0788 59.696C49.5816 59.0829 49.2944 58.2932 49.9177 57.7117C50.3171 57.3391 50.7423 57.0925 50.9343 56.539C51.2367 55.6677 50.6425 55.1849 50.5116 54.3978C50.3511 53.4335 51.1315 52.8291 51.7195 52.2002C52.333 51.5438 53.0384 50.9135 53.5876 50.2017C53.9714 49.7043 54.081 48.8768 53.2304 48.8861C52.3191 48.896 51.7729 48.8105 51.1239 48.1073C50.4759 47.4053 50.1455 46.4385 49.7455 45.584C49.3727 44.7874 49.0712 43.7268 48.5008 43.0389C48.0625 42.5104 47.4698 42.5785 46.8898 42.3877C46.4261 42.2352 45.9711 42.0485 45.5131 41.8793Z" fill="#A5DC69"/>
<path d="M54.0337 56.8172C53.8114 57.5662 53.5891 58.3153 53.3669 59.0643C53.1902 59.6599 52.9099 61.3174 51.9089 60.6273C51.5486 60.3789 51.5453 59.7928 51.6474 59.3991C51.7402 59.0414 52.0908 58.8632 52.0411 58.4601C52.0059 58.1745 51.8073 58.0662 51.925 57.7343C52.1369 57.1366 52.836 57.2172 53.1658 56.7722C53.3981 56.4587 53.5541 56.0563 53.7406 55.7124C53.8383 56.0806 53.936 56.4489 54.0337 56.8172Z" fill="#A5DC69"/>
<path d="M45.4774 63.7525C44.4277 63.7525 43.9726 62.6913 43.6633 61.9702C43.5979 61.8178 43.5361 61.6738 43.4744 61.5478C43.2531 61.0961 43.1168 60.6231 42.985 60.1657C42.8748 59.7833 42.7708 59.422 42.6225 59.0819C42.5657 58.9515 42.4902 58.8134 42.4103 58.6671C42.1299 58.154 41.7809 57.5152 42.0613 56.7798C42.1478 56.5527 42.2515 56.3734 42.3431 56.2152C42.5091 55.9283 42.6005 55.7703 42.554 55.446L42.5451 55.3837C42.4957 55.0371 42.4279 54.5624 42.302 54.2769C42.231 54.1158 42.0805 53.9534 41.9211 53.7813C41.6395 53.4772 41.3203 53.1325 41.2513 52.6169C41.2242 52.4146 41.2411 52.2357 41.256 52.0779C41.2715 51.9149 41.2836 51.7861 41.2451 51.6673C41.1623 51.4113 40.9768 51.1902 40.7362 51.0606C40.3252 50.8392 39.8531 50.9554 39.3066 51.0899C38.9824 51.1697 38.6472 51.2523 38.2981 51.2675C37.3402 51.3091 36.4271 51.1083 35.6577 50.6861C35.4305 50.5615 35.3474 50.2763 35.4721 50.0492C35.5967 49.822 35.882 49.7389 36.109 49.8636C36.728 50.2031 37.4705 50.3643 38.2571 50.3301C38.5132 50.3189 38.7897 50.2508 39.0824 50.1787C39.7243 50.0207 40.452 49.8416 41.1813 50.2345C41.6327 50.4777 41.9813 50.8945 42.1379 51.3783C42.2361 51.6816 42.2107 51.9502 42.1903 52.1661C42.1786 52.2896 42.1685 52.3963 42.1814 52.4924C42.211 52.7132 42.3957 52.9127 42.6096 53.1437C42.8049 53.3545 43.0263 53.5935 43.1607 53.8984C43.3387 54.3021 43.4138 54.8283 43.4741 55.2512L43.4829 55.3128C43.5756 55.9587 43.3523 56.3446 43.1554 56.6851C43.0744 56.8251 42.9978 56.9574 42.9382 57.114C42.8204 57.4228 42.9714 57.7367 43.2339 58.2172C43.3202 58.375 43.4094 58.5382 43.4829 58.707C43.6556 59.1033 43.7732 59.5113 43.8868 59.9058C44.013 60.3436 44.1321 60.7571 44.3172 61.1349C44.3893 61.282 44.4556 61.4366 44.5258 61.6002C44.9155 62.5086 45.1515 62.8763 45.603 62.8032C46.334 62.6844 47.5112 61.6523 47.8236 60.9973C47.8575 60.9264 47.8771 60.7616 47.8928 60.6291C47.9212 60.3906 47.9505 60.144 48.0766 59.9356C48.1919 59.7452 48.3762 59.6272 48.5388 59.5231C48.5999 59.484 48.6921 59.4249 48.7174 59.397C48.8747 59.205 48.9227 58.9599 48.9783 58.676C49.056 58.2785 49.1528 57.7837 49.5979 57.3685C49.6965 57.2765 49.7933 57.1942 49.887 57.1148C50.1651 56.8786 50.3849 56.6921 50.4914 56.385C50.619 56.0171 50.527 55.7761 50.3391 55.3474C50.2296 55.0977 50.1056 54.8148 50.0491 54.4747C49.8724 53.4128 50.5664 52.7076 51.124 52.141C51.2129 52.0507 51.2968 51.9654 51.377 51.8797C51.5853 51.6567 51.8056 51.4352 52.0186 51.221C52.4359 50.8014 52.8673 50.3674 53.2164 49.9149C53.3968 49.6812 53.4266 49.4396 53.4007 49.3801C53.3898 49.3741 53.3442 49.3556 53.2357 49.3551C52.339 49.3655 51.5889 49.3025 50.7794 48.4254C50.2172 47.8164 49.8872 47.0632 49.5681 46.3347C49.4839 46.1426 49.4044 45.9611 49.3209 45.7828C49.2045 45.5339 49.0992 45.2718 48.9877 44.9945C48.7449 44.39 48.4938 43.765 48.1399 43.3382C47.9468 43.1052 47.7109 43.0495 47.3108 42.9709C47.1294 42.9353 46.9418 42.8985 46.7435 42.8332C46.4236 42.728 46.1081 42.6072 45.8029 42.4904C45.7008 42.4513 45.5987 42.4122 45.4965 42.3737C45.4884 42.3759 45.4802 42.3782 45.4718 42.3805C45.4611 42.3834 45.4486 42.3868 45.4351 42.3905C45.4579 42.499 45.4581 42.6285 45.3979 42.768C45.194 43.2405 44.665 43.4157 44.0815 43.2038C43.4915 42.9896 42.9323 42.657 42.3915 42.3353C42.1312 42.1804 41.8852 42.0341 41.6406 41.9032C41.5093 41.8329 41.4192 41.7046 41.3976 41.5574C41.3761 41.4101 41.4257 41.2613 41.5314 41.1565C41.6005 41.088 41.6735 40.9828 41.6291 40.871C41.5966 40.7895 41.4929 40.6927 41.3074 40.6882C41.131 40.6842 40.9274 40.7176 40.7119 40.7533C40.597 40.7723 40.4781 40.792 40.3601 40.8061C40.0915 40.8382 39.8039 40.8566 39.5259 40.8746C38.9416 40.9122 38.3375 40.951 37.8565 41.1138C37.663 41.1793 37.5911 41.2998 37.4468 41.5661C37.388 41.6747 37.3214 41.7976 37.2364 41.9211C37.03 42.2212 36.7805 42.4884 36.5392 42.7469C36.4247 42.8696 36.3164 42.9855 36.2153 43.102C36.1008 43.234 35.9828 43.3637 35.8689 43.4892C35.4818 43.9152 35.1161 44.3175 34.8839 44.7908C34.4942 45.5852 34.3142 46.3474 34.3491 47.0562C34.3618 47.3151 34.1623 47.5352 33.9035 47.5479C33.6446 47.5599 33.4246 47.3611 33.4119 47.1023C33.3691 46.233 33.581 45.3163 34.0414 44.3776C34.3323 43.7848 34.7604 43.3137 35.1745 42.858C35.285 42.7365 35.3992 42.6107 35.5067 42.4869C35.619 42.3575 35.7382 42.2299 35.8533 42.1065C36.0812 41.8624 36.2965 41.6319 36.4633 41.3894C36.5201 41.3068 36.5695 41.2156 36.6218 41.119C36.7927 40.8037 37.0054 40.4113 37.5557 40.225C38.1539 40.0226 38.8208 39.9797 39.4657 39.9382C39.7434 39.9203 40.0057 39.9035 40.249 39.8744C40.3458 39.8629 40.4492 39.8458 40.5587 39.8277C40.8077 39.7864 41.0653 39.7433 41.3301 39.7503C41.8593 39.7631 42.319 40.0669 42.5009 40.5242C42.6052 40.7864 42.6081 41.0623 42.5174 41.32C42.6364 41.3894 42.7547 41.4597 42.8712 41.529C43.3745 41.8284 43.895 42.1379 44.4017 42.3219C44.4034 42.3226 44.4052 42.3232 44.4069 42.3238C44.3762 42.1816 44.3832 42.0029 44.5192 41.8247C44.6602 41.64 44.8902 41.5665 45.2251 41.4752C45.2702 41.463 45.3318 41.4462 45.3508 41.4393C45.4549 41.4016 45.572 41.4008 45.6759 41.4392C45.8302 41.4962 45.9843 41.5552 46.1383 41.6142C46.4332 41.7271 46.7381 41.8438 47.0366 41.942C47.1797 41.9891 47.3312 42.0188 47.4916 42.0503C47.9169 42.1338 48.4462 42.2377 48.8622 42.7394C49.3098 43.2792 49.5887 43.9734 49.8584 44.6448C49.9649 44.9097 50.0654 45.16 50.1708 45.3852C50.2592 45.574 50.3448 45.7693 50.4275 45.9583C50.7157 46.6158 51.0135 47.2958 51.4689 47.7892C51.9746 48.3371 52.3507 48.426 53.2256 48.417C53.232 48.4169 53.2385 48.4169 53.2448 48.4169C53.8744 48.4169 54.1377 48.7553 54.2389 48.9585C54.4831 49.4486 54.2744 50.08 53.9593 50.4884C53.5743 50.9874 53.1217 51.4426 52.6841 51.8828C52.4665 52.1016 52.261 52.3083 52.0625 52.5207C51.9741 52.6152 51.882 52.7088 51.7928 52.7993C51.2226 53.3787 50.8831 53.7702 50.9747 54.3209C51.012 54.5455 51.1026 54.7522 51.1985 54.971C51.3917 55.4118 51.6321 55.9604 51.3779 56.6928C51.1874 57.2418 50.8192 57.5544 50.4943 57.8302C50.405 57.906 50.3206 57.9777 50.2381 58.0547C50.0262 58.2525 49.9713 58.4882 49.8992 58.8564C49.8295 59.2131 49.7504 59.6175 49.4419 59.9935C49.3285 60.1319 49.1779 60.2284 49.045 60.3134C48.9897 60.3489 48.9087 60.4007 48.8758 60.4304C48.855 60.4858 48.8369 60.6376 48.8247 60.7402C48.7995 60.9515 48.771 61.1909 48.6707 61.4014C48.2392 62.3061 46.8084 63.5581 45.7536 63.7295C45.6571 63.7451 45.565 63.7525 45.4774 63.7525Z" fill="#A5DC69"/>
<path d="M34.4266 49.337C34.267 49.337 34.1115 49.2555 34.0236 49.1085L34.005 49.0772C33.8738 48.8537 33.9485 48.5663 34.1719 48.435C34.3953 48.3039 34.6829 48.3785 34.8141 48.602L34.8289 48.6269C34.9618 48.8492 34.8894 49.1374 34.667 49.2703C34.5916 49.3155 34.5085 49.337 34.4266 49.337Z" fill="#A5DC69"/>
<path d="M52.3545 61.2614C52.1556 61.2614 51.9141 61.2006 51.6426 61.0134C51.08 60.6255 51.049 59.8379 51.1933 59.2812C51.2522 59.0544 51.3671 58.889 51.4595 58.7562C51.5634 58.6066 51.5818 58.5687 51.5755 58.5175C51.571 58.481 51.5566 58.4463 51.5293 58.3832C51.4611 58.2253 51.3469 57.9611 51.4829 57.5775C51.6702 57.049 52.0959 56.8614 52.4067 56.7244C52.5745 56.6505 52.7193 56.5866 52.7889 56.4928C52.9184 56.3178 53.026 56.0964 53.14 55.8619C53.1998 55.7387 53.2616 55.6114 53.3282 55.4886C53.4199 55.3195 53.6053 55.224 53.7962 55.2464C53.9871 55.2692 54.1448 55.4061 54.1941 55.5919L54.4872 56.6967C54.5093 56.78 54.508 56.8678 54.4835 56.9505L53.8168 59.1976C53.7984 59.2596 53.7779 59.3376 53.7542 59.428C53.5945 60.0359 53.3533 60.9546 52.6863 61.202C52.596 61.2355 52.4843 61.2614 52.3545 61.2614ZM53.4382 57.1747C53.2354 57.3846 52.9891 57.4932 52.7851 57.583C52.5196 57.7001 52.4148 57.757 52.3672 57.891C52.3579 57.9173 52.3573 57.9284 52.3573 57.9285C52.3594 57.9388 52.3774 57.9805 52.3906 58.011C52.4307 58.1037 52.4856 58.2308 52.5068 58.4026C52.5583 58.8195 52.3607 59.1036 52.23 59.2917C52.1701 59.3779 52.1184 59.4523 52.1016 59.5169C52.0227 59.8211 52.0571 60.1595 52.1752 60.241C52.2914 60.3211 52.3511 60.3258 52.36 60.3223C52.3641 60.3208 52.4626 60.2813 52.5966 59.9767C52.7045 59.7312 52.7833 59.431 52.8467 59.1898C52.8713 59.0959 52.8947 59.007 52.9172 58.9309L53.4382 57.1747Z" fill="#A5DC69"/>
<path d="M464.878 37.3899C466.558 37.3899 468.056 37.7679 469.372 38.5239C470.716 39.2799 471.752 40.3299 472.48 41.6739C473.236 42.9899 473.614 44.4879 473.614 46.1679C473.614 47.8479 473.236 49.3599 472.48 50.7039C471.752 52.0199 470.716 53.0559 469.372 53.8119C468.056 54.5679 466.558 54.9459 464.878 54.9459C463.198 54.9459 461.686 54.5679 460.342 53.8119C459.026 53.0559 457.99 52.0199 457.234 50.7039C456.478 49.3599 456.1 47.8479 456.1 46.1679C456.1 44.4879 456.478 42.9899 457.234 41.6739C457.99 40.3299 459.026 39.2799 460.342 38.5239C461.686 37.7679 463.198 37.3899 464.878 37.3899ZM464.878 53.0139C466.894 53.0139 468.504 52.3839 469.708 51.1239C470.94 49.8639 471.556 48.2119 471.556 46.1679C471.556 44.1239 470.94 42.4719 469.708 41.2119C468.504 39.9519 466.894 39.3219 464.878 39.3219C462.834 39.3219 461.21 39.9519 460.006 41.2119C458.802 42.4719 458.2 44.1239 458.2 46.1679C458.2 48.2119 458.802 49.8639 460.006 51.1239C461.21 52.3839 462.834 53.0139 464.878 53.0139ZM468.742 44.4879C468.742 45.1039 468.588 45.6499 468.28 46.1259C467.972 46.5739 467.552 46.9099 467.02 47.1339L469.246 50.5779H466.054L464.206 47.4279H463.912V50.5779H461.266V41.5479H465.508C466.488 41.5479 467.272 41.8279 467.86 42.3879C468.448 42.9199 468.742 43.6199 468.742 44.4879ZM463.912 45.2859H465.34C465.564 45.2859 465.746 45.2299 465.886 45.1179C466.054 44.9779 466.138 44.7959 466.138 44.5719C466.138 44.3479 466.054 44.1799 465.886 44.0679C465.746 43.9559 465.564 43.8999 465.34 43.8999H463.912V45.2859Z" fill="white"/>
</svg>
