<svg width="268" height="66" viewBox="0 0 268 66" fill="none" xmlns="http://www.w3.org/2000/svg">
<path d="M83.004 24.405V26.358H79.119V39H76.725V26.358H72.819V24.405H83.004Z" fill="white"/>
<path d="M91.4135 27.24C92.2955 27.24 93.0795 27.429 93.7655 27.807C94.4655 28.185 95.0115 28.745 95.4035 29.487C95.8095 30.229 96.0125 31.125 96.0125 32.175V39H93.6395V32.532C93.6395 31.496 93.3805 30.705 92.8625 30.159C92.3445 29.599 91.6375 29.319 90.7415 29.319C89.8455 29.319 89.1315 29.599 88.5995 30.159C88.0815 30.705 87.8225 31.496 87.8225 32.532V39H85.4285V23.46H87.8225V28.773C88.2285 28.283 88.7395 27.905 89.3555 27.639C89.9855 27.373 90.6715 27.24 91.4135 27.24Z" fill="white"/>
<path d="M109.671 32.931C109.671 33.365 109.643 33.757 109.587 34.107H100.746C100.816 35.031 101.159 35.773 101.775 36.333C102.391 36.893 103.147 37.173 104.043 37.173C105.331 37.173 106.241 36.634 106.773 35.556H109.356C109.006 36.62 108.369 37.495 107.445 38.181C106.535 38.853 105.401 39.189 104.043 39.189C102.937 39.189 101.943 38.944 101.061 38.454C100.193 37.95 99.5072 37.25 99.0032 36.354C98.5132 35.444 98.2682 34.394 98.2682 33.204C98.2682 32.014 98.5062 30.971 98.9822 30.075C99.4722 29.165 100.151 28.465 101.019 27.975C101.901 27.485 102.909 27.24 104.043 27.24C105.135 27.24 106.108 27.478 106.962 27.954C107.816 28.43 108.481 29.102 108.957 29.97C109.433 30.824 109.671 31.811 109.671 32.931ZM107.172 32.175C107.158 31.293 106.843 30.586 106.227 30.054C105.611 29.522 104.848 29.256 103.938 29.256C103.112 29.256 102.405 29.522 101.817 30.054C101.229 30.572 100.879 31.279 100.767 32.175H107.172Z" fill="white"/>
<path d="M126.281 36.018H120.17L119.12 39H116.621L121.85 24.384H124.622L129.851 39H127.331L126.281 36.018ZM125.609 34.065L123.236 27.282L120.842 34.065H125.609Z" fill="white"/>
<path d="M136.976 29.382H134.834V39H132.419V29.382H131.054V27.429H132.419V26.61C132.419 25.28 132.769 24.314 133.469 23.712C134.183 23.096 135.296 22.788 136.808 22.788V24.783C136.08 24.783 135.569 24.923 135.275 25.203C134.981 25.469 134.834 25.938 134.834 26.61V27.429H136.976V29.382Z" fill="white"/>
<path d="M141.491 29.109C141.841 28.521 142.303 28.066 142.877 27.744C143.465 27.408 144.158 27.24 144.956 27.24V29.718H144.347C143.409 29.718 142.695 29.956 142.205 30.432C141.729 30.908 141.491 31.734 141.491 32.91V39H139.097V27.429H141.491V29.109Z" fill="white"/>
<path d="M148.375 25.896C147.941 25.896 147.577 25.749 147.283 25.455C146.989 25.161 146.842 24.797 146.842 24.363C146.842 23.929 146.989 23.565 147.283 23.271C147.577 22.977 147.941 22.83 148.375 22.83C148.795 22.83 149.152 22.977 149.446 23.271C149.74 23.565 149.887 23.929 149.887 24.363C149.887 24.797 149.74 25.161 149.446 25.455C149.152 25.749 148.795 25.896 148.375 25.896ZM149.551 27.429V39H147.157V27.429H149.551Z" fill="white"/>
<path d="M151.896 33.204C151.896 32.014 152.134 30.971 152.61 30.075C153.1 29.165 153.772 28.465 154.626 27.975C155.48 27.485 156.46 27.24 157.566 27.24C158.966 27.24 160.121 27.576 161.031 28.248C161.955 28.906 162.578 29.851 162.9 31.083H160.317C160.107 30.509 159.771 30.061 159.309 29.739C158.847 29.417 158.266 29.256 157.566 29.256C156.586 29.256 155.802 29.606 155.214 30.306C154.64 30.992 154.353 31.958 154.353 33.204C154.353 34.45 154.64 35.423 155.214 36.123C155.802 36.823 156.586 37.173 157.566 37.173C158.952 37.173 159.869 36.564 160.317 35.346H162.9C162.564 36.522 161.934 37.46 161.01 38.16C160.086 38.846 158.938 39.189 157.566 39.189C156.46 39.189 155.48 38.944 154.626 38.454C153.772 37.95 153.1 37.25 152.61 36.354C152.134 35.444 151.896 34.394 151.896 33.204Z" fill="white"/>
<path d="M164.488 33.162C164.488 32 164.726 30.971 165.202 30.075C165.692 29.179 166.35 28.486 167.176 27.996C168.016 27.492 168.94 27.24 169.948 27.24C170.858 27.24 171.649 27.422 172.321 27.786C173.007 28.136 173.553 28.577 173.959 29.109V27.429H176.374V39H173.959V37.278C173.553 37.824 173 38.279 172.3 38.643C171.6 39.007 170.802 39.189 169.906 39.189C168.912 39.189 168.002 38.937 167.176 38.433C166.35 37.915 165.692 37.201 165.202 36.291C164.726 35.367 164.488 34.324 164.488 33.162ZM173.959 33.204C173.959 32.406 173.791 31.713 173.455 31.125C173.133 30.537 172.706 30.089 172.174 29.781C171.642 29.473 171.068 29.319 170.452 29.319C169.836 29.319 169.262 29.473 168.73 29.781C168.198 30.075 167.764 30.516 167.428 31.104C167.106 31.678 166.945 32.364 166.945 33.162C166.945 33.96 167.106 34.66 167.428 35.262C167.764 35.864 168.198 36.326 168.73 36.648C169.276 36.956 169.85 37.11 170.452 37.11C171.068 37.11 171.642 36.956 172.174 36.648C172.706 36.34 173.133 35.892 173.455 35.304C173.791 34.702 173.959 34.002 173.959 33.204Z" fill="white"/>
<path d="M187.367 24.405V39H184.973V24.405H187.367Z" fill="white"/>
<path d="M204.009 39L198.36 32.469V39H195.966V24.405H198.36V31.062L204.03 24.405H207.033L200.691 31.713L207.138 39H204.009Z" fill="white"/>
<path d="M215.093 27.24C216.003 27.24 216.815 27.429 217.529 27.807C218.257 28.185 218.824 28.745 219.23 29.487C219.636 30.229 219.839 31.125 219.839 32.175V39H217.466V32.532C217.466 31.496 217.207 30.705 216.689 30.159C216.171 29.599 215.464 29.319 214.568 29.319C213.672 29.319 212.958 29.599 212.426 30.159C211.908 30.705 211.649 31.496 211.649 32.532V39H209.255V27.429H211.649V28.752C212.041 28.276 212.538 27.905 213.14 27.639C213.756 27.373 214.407 27.24 215.093 27.24Z" fill="white"/>
<path d="M227.911 39.189C226.819 39.189 225.832 38.944 224.95 38.454C224.068 37.95 223.375 37.25 222.871 36.354C222.367 35.444 222.115 34.394 222.115 33.204C222.115 32.028 222.374 30.985 222.892 30.075C223.41 29.165 224.117 28.465 225.013 27.975C225.909 27.485 226.91 27.24 228.016 27.24C229.122 27.24 230.123 27.485 231.019 27.975C231.915 28.465 232.622 29.165 233.14 30.075C233.658 30.985 233.917 32.028 233.917 33.204C233.917 34.38 233.651 35.423 233.119 36.333C232.587 37.243 231.859 37.95 230.935 38.454C230.025 38.944 229.017 39.189 227.911 39.189ZM227.911 37.11C228.527 37.11 229.101 36.963 229.633 36.669C230.179 36.375 230.62 35.934 230.956 35.346C231.292 34.758 231.46 34.044 231.46 33.204C231.46 32.364 231.299 31.657 230.977 31.083C230.655 30.495 230.228 30.054 229.696 29.76C229.164 29.466 228.59 29.319 227.974 29.319C227.358 29.319 226.784 29.466 226.252 29.76C225.734 30.054 225.321 30.495 225.013 31.083C224.705 31.657 224.551 32.364 224.551 33.204C224.551 34.45 224.866 35.416 225.496 36.102C226.14 36.774 226.945 37.11 227.911 37.11Z" fill="white"/>
<path d="M251.824 27.429L248.233 39H245.713L243.382 30.453L241.051 39H238.531L234.919 27.429H237.355L239.77 36.732L242.227 27.429H244.726L247.078 36.69L249.472 27.429H251.824Z" fill="white"/>
<path d="M262.932 24.195C263.772 24.195 264.521 24.384 265.179 24.762C265.851 25.14 266.369 25.665 266.733 26.337C267.111 26.995 267.3 27.744 267.3 28.584C267.3 29.424 267.111 30.18 266.733 30.852C266.369 31.51 265.851 32.028 265.179 32.406C264.521 32.784 263.772 32.973 262.932 32.973C262.092 32.973 261.336 32.784 260.664 32.406C260.006 32.028 259.488 31.51 259.11 30.852C258.732 30.18 258.543 29.424 258.543 28.584C258.543 27.744 258.732 26.995 259.11 26.337C259.488 25.665 260.006 25.14 260.664 24.762C261.336 24.384 262.092 24.195 262.932 24.195ZM262.932 32.007C263.94 32.007 264.745 31.692 265.347 31.062C265.963 30.432 266.271 29.606 266.271 28.584C266.271 27.562 265.963 26.736 265.347 26.106C264.745 25.476 263.94 25.161 262.932 25.161C261.91 25.161 261.098 25.476 260.496 26.106C259.894 26.736 259.593 27.562 259.593 28.584C259.593 29.606 259.894 30.432 260.496 31.062C261.098 31.692 261.91 32.007 262.932 32.007ZM264.864 27.744C264.864 28.052 264.787 28.325 264.633 28.563C264.479 28.787 264.269 28.955 264.003 29.067L265.116 30.789H263.52L262.596 29.214H262.449V30.789H261.126V26.274H263.247C263.737 26.274 264.129 26.414 264.423 26.694C264.717 26.96 264.864 27.31 264.864 27.744ZM262.449 28.143H263.163C263.275 28.143 263.366 28.115 263.436 28.059C263.52 27.989 263.562 27.898 263.562 27.786C263.562 27.674 263.52 27.59 263.436 27.534C263.366 27.478 263.275 27.45 263.163 27.45H262.449V28.143Z" fill="white"/>
<path d="M33 62.4324C49.2551 62.4324 62.4324 49.2551 62.4324 33C62.4324 16.7449 49.2551 3.56757 33 3.56757C16.7449 3.56757 3.56757 16.7449 3.56757 33C3.56757 49.2551 16.7449 62.4324 33 62.4324Z" fill="white"/>
<path d="M13.8481 38.8865H12.5777V29.0893H9.11768V27.9608H17.3082V29.0893H13.8481V38.8865Z" fill="#061901"/>
<path d="M40.4296 38.8865V27.9608H41.7V38.8865H40.4296Z" fill="#061901"/>
<path d="M58.4881 38.8865H56.9935L53.0104 33.5881L51.867 34.6044V38.8865H50.5965V27.9608H51.867V33.3788L56.8216 27.9608H58.3237L53.9295 32.7062L58.4881 38.8865Z" fill="#061901"/>
<path d="M28.9101 26.8867C28.8382 26.9133 28.607 26.9586 28.5641 27.0148C28.4991 27.1 28.6458 27.1856 28.6059 27.278C28.5316 27.4502 28.3188 27.4211 28.2019 27.3787C27.7461 27.2132 27.3054 26.899 26.8768 26.6697C27.1737 26.3751 26.9596 25.9716 26.5744 25.9623C26.3911 25.9579 26.1912 26.008 26.0096 26.0297C25.5549 26.084 25.0004 26.0649 24.5627 26.213C24.2768 26.3098 24.2333 26.5476 24.086 26.7619C23.9307 26.9877 23.7149 27.1894 23.5353 27.3962C23.2574 27.7165 22.944 28.0111 22.7567 28.3928C22.38 29.1609 22.2769 29.9948 22.7273 30.7623C23.1814 31.5359 24.0053 31.8916 24.8811 31.8533C25.3765 31.8316 25.893 31.5099 26.374 31.7691C26.5667 31.8729 26.7145 32.0479 26.782 32.2564C26.8478 32.4596 26.7695 32.6338 26.7959 32.831C26.8433 33.1855 27.2254 33.3769 27.361 33.6846C27.4503 33.887 27.4894 34.1847 27.5209 34.4039C27.5781 34.8026 27.3582 34.9457 27.232 35.2767C27.0824 35.6693 27.391 36.0193 27.54 36.3611C27.7325 36.8029 27.7983 37.2927 28.0094 37.7235C28.2273 38.1683 28.4064 38.8922 29.0019 38.7954C29.494 38.7154 30.2218 38.0856 30.4322 37.6445C30.509 37.4835 30.481 37.208 30.5609 37.0761C30.6218 36.9754 30.8159 36.9044 30.8955 36.8073C31.1755 36.4659 31.0156 36.0262 31.3626 35.7024C31.585 35.4949 31.8217 35.3576 31.9287 35.0495C32.097 34.5643 31.7662 34.2955 31.6933 33.8572C31.6039 33.3203 32.0385 32.9837 32.3659 32.6335C32.7075 32.268 33.1003 31.917 33.4061 31.5207C33.6198 31.2438 33.6808 30.783 33.2072 30.7882C32.6997 30.7937 32.3956 30.7461 32.0342 30.3545C31.6734 29.9636 31.4894 29.4253 31.2667 28.9495C31.0592 28.5059 30.8913 27.9154 30.5736 27.5323C30.3296 27.238 29.9996 27.276 29.6766 27.1697C29.4184 27.0848 29.1651 26.9809 28.9101 26.8867Z" fill="#A5DC69"/>
<path d="M33.6545 35.2044C33.5307 35.6215 33.407 36.0386 33.2832 36.4557C33.1848 36.7873 33.0288 37.7102 32.4714 37.3259C32.2708 37.1876 32.2689 36.8613 32.3258 36.6421C32.3774 36.4429 32.5727 36.3437 32.545 36.1192C32.5254 35.9602 32.4148 35.8999 32.4803 35.7151C32.5983 35.3823 32.9876 35.4272 33.1712 35.1794C33.3006 35.0048 33.3874 34.7807 33.4913 34.5892C33.5457 34.7943 33.6001 34.9993 33.6545 35.2044Z" fill="#A5DC69"/>
<path d="M28.8902 39.0661C28.3057 39.0661 28.0523 38.4752 27.88 38.0737C27.8436 37.9888 27.8093 37.9086 27.7749 37.8385C27.6517 37.587 27.5758 37.3236 27.5024 37.0689C27.441 36.856 27.3831 36.6548 27.3005 36.4654C27.2689 36.3928 27.2269 36.3159 27.1824 36.2345C27.0262 35.9488 26.8319 35.5931 26.988 35.1836C27.0362 35.0571 27.094 34.9573 27.1449 34.8692C27.2374 34.7094 27.2883 34.6215 27.2624 34.4409L27.2574 34.4062C27.2299 34.2132 27.1922 33.9489 27.1221 33.7899C27.0825 33.7002 26.9987 33.6098 26.91 33.5139C26.7532 33.3446 26.5754 33.1527 26.537 32.8656C26.522 32.7529 26.5314 32.6533 26.5397 32.5655C26.5482 32.4747 26.555 32.403 26.5336 32.3368C26.4874 32.1943 26.3842 32.0712 26.2502 31.999C26.0214 31.8757 25.7585 31.9404 25.4542 32.0153C25.2736 32.0598 25.087 32.1057 24.8926 32.1142C24.3593 32.1374 23.8508 32.0256 23.4224 31.7905C23.2959 31.7211 23.2496 31.5623 23.319 31.4358C23.3884 31.3093 23.5473 31.2631 23.6737 31.3325C24.0183 31.5216 24.4318 31.6113 24.8698 31.5923C25.0124 31.586 25.1663 31.5481 25.3293 31.508C25.6868 31.42 26.092 31.3202 26.498 31.539C26.7494 31.6745 26.9435 31.9065 27.0307 32.1759C27.0854 32.3448 27.0712 32.4944 27.0599 32.6146C27.0534 32.6834 27.0477 32.7427 27.0549 32.7963C27.0714 32.9192 27.1742 33.0303 27.2934 33.1589C27.4021 33.2763 27.5253 33.4094 27.6002 33.5792C27.6993 33.8039 27.7411 34.097 27.7747 34.3324L27.7796 34.3667C27.8312 34.7264 27.7069 34.9413 27.5972 35.1309C27.5521 35.2088 27.5095 35.2825 27.4763 35.3697C27.4107 35.5416 27.4948 35.7164 27.641 35.984C27.689 36.0718 27.7387 36.1627 27.7796 36.2566C27.8758 36.4773 27.9413 36.7045 28.0045 36.9242C28.0748 37.168 28.1411 37.3982 28.2441 37.6086C28.2843 37.6905 28.3212 37.7766 28.3603 37.8677C28.5773 38.3735 28.7087 38.5782 28.9601 38.5375C29.3671 38.4714 30.0226 37.8967 30.1966 37.5319C30.2155 37.4925 30.2264 37.4007 30.2351 37.3269C30.2509 37.1941 30.2673 37.0568 30.3375 36.9408C30.4017 36.8348 30.5043 36.769 30.5949 36.7111C30.6288 36.6893 30.6802 36.6564 30.6943 36.6409C30.7819 36.534 30.8086 36.3975 30.8395 36.2394C30.8828 36.0181 30.9367 35.7426 31.1845 35.5114C31.2395 35.4602 31.2934 35.4143 31.3455 35.3701C31.5004 35.2386 31.6228 35.1347 31.6821 34.9638C31.7531 34.7589 31.7019 34.6247 31.5972 34.386C31.5363 34.247 31.4673 34.0894 31.4358 33.9C31.3374 33.3088 31.7238 32.9161 32.0343 32.6006C32.0838 32.5503 32.1306 32.5028 32.1752 32.4551C32.2912 32.3309 32.4139 32.2076 32.5325 32.0883C32.7648 31.8547 33.005 31.6131 33.1994 31.3611C33.2999 31.2309 33.3164 31.0964 33.302 31.0633C33.296 31.0599 33.2706 31.0497 33.2102 31.0494C32.7109 31.0552 32.2932 31.0201 31.8424 30.5317C31.5294 30.1926 31.3456 29.7732 31.1679 29.3676C31.1211 29.2606 31.0768 29.1595 31.0303 29.0602C30.9655 28.9217 30.9069 28.7757 30.8448 28.6213C30.7096 28.2847 30.5698 27.9367 30.3727 27.699C30.2652 27.5693 30.1339 27.5383 29.9111 27.4945C29.8101 27.4747 29.7056 27.4542 29.5952 27.4179C29.4171 27.3593 29.2414 27.292 29.0714 27.227C29.0146 27.2052 28.9577 27.1834 28.9008 27.162C28.8963 27.1632 28.8917 27.1645 28.8871 27.1658C28.8811 27.1674 28.8742 27.1693 28.8667 27.1714C28.8793 27.2318 28.8794 27.3039 28.8459 27.3816C28.7324 27.6447 28.4378 27.7422 28.1129 27.6242C27.7844 27.5049 27.473 27.3197 27.1719 27.1406C27.0269 27.0544 26.89 26.9729 26.7538 26.9C26.6807 26.8609 26.6305 26.7894 26.6185 26.7075C26.6065 26.6254 26.6342 26.5426 26.693 26.4842C26.7314 26.4461 26.7721 26.3875 26.7474 26.3253C26.7293 26.2799 26.6716 26.226 26.5683 26.2235C26.47 26.2213 26.3567 26.2399 26.2367 26.2597C26.1727 26.2703 26.1065 26.2813 26.0408 26.2891C25.8912 26.307 25.7311 26.3173 25.5763 26.3272C25.2509 26.3482 24.9145 26.3698 24.6467 26.4605C24.539 26.4969 24.4989 26.564 24.4186 26.7123C24.3859 26.7728 24.3488 26.8412 24.3014 26.91C24.1865 27.0771 24.0476 27.2259 23.9132 27.3698C23.8495 27.4381 23.7892 27.5026 23.7329 27.5675C23.6691 27.641 23.6034 27.7132 23.54 27.7831C23.3244 28.0203 23.1208 28.2443 22.9915 28.5079C22.7745 28.9502 22.6743 29.3746 22.6937 29.7693C22.7008 29.9134 22.5897 30.036 22.4456 30.0431C22.3015 30.0498 22.179 29.9391 22.1719 29.795C22.1481 29.3109 22.266 28.8005 22.5224 28.2778C22.6844 27.9477 22.9228 27.6854 23.1533 27.4317C23.2148 27.364 23.2785 27.294 23.3383 27.225C23.4008 27.153 23.4672 27.0819 23.5313 27.0132C23.6582 26.8773 23.7781 26.7489 23.871 26.6139C23.9026 26.5679 23.9301 26.5172 23.9592 26.4634C24.0544 26.2878 24.1728 26.0693 24.4793 25.9656C24.8123 25.8529 25.1836 25.829 25.5427 25.8059C25.6974 25.7959 25.8435 25.7865 25.9789 25.7704C26.0328 25.7639 26.0904 25.7544 26.1514 25.7443C26.29 25.7213 26.4334 25.6974 26.5809 25.7012C26.8756 25.7083 27.1315 25.8775 27.2328 26.1322C27.2909 26.2781 27.2925 26.4318 27.242 26.5753C27.3083 26.6139 27.3741 26.6531 27.439 26.6917C27.7193 26.8584 28.0091 27.0307 28.2912 27.1332C28.2922 27.1335 28.2932 27.1339 28.2941 27.1342C28.277 27.0551 28.2809 26.9555 28.3566 26.8563C28.4352 26.7535 28.5632 26.7125 28.7497 26.6617C28.7748 26.6549 28.8091 26.6456 28.8197 26.6417C28.8777 26.6207 28.9429 26.6203 29.0007 26.6417C29.0867 26.6734 29.1724 26.7062 29.2582 26.7391C29.4224 26.802 29.5922 26.867 29.7584 26.9216C29.838 26.9478 29.9224 26.9644 30.0117 26.9819C30.2485 27.0284 30.5433 27.0863 30.7749 27.3656C31.0241 27.6662 31.1794 28.0527 31.3296 28.4266C31.3889 28.5741 31.4449 28.7135 31.5036 28.8389C31.5528 28.944 31.6004 29.0528 31.6465 29.158C31.8069 29.5241 31.9728 29.9027 32.2264 30.1774C32.5079 30.4825 32.7174 30.532 33.2045 30.527C33.2081 30.527 33.2117 30.5269 33.2152 30.5269C33.5658 30.5269 33.7124 30.7154 33.7687 30.8285C33.9047 31.1014 33.7885 31.453 33.6131 31.6804C33.3987 31.9583 33.1467 32.2117 32.903 32.4568C32.7819 32.5786 32.6674 32.6938 32.5569 32.812C32.5077 32.8647 32.4564 32.9168 32.4067 32.9672C32.0892 33.2898 31.9002 33.5078 31.9512 33.8144C31.972 33.9395 32.0224 34.0546 32.0758 34.1764C32.1834 34.4218 32.3172 34.7273 32.1757 35.1351C32.0696 35.4408 31.8646 35.6149 31.6837 35.7685C31.634 35.8107 31.587 35.8506 31.541 35.8935C31.423 36.0036 31.3925 36.1348 31.3523 36.3398C31.3135 36.5385 31.2695 36.7636 31.0977 36.973C31.0345 37.0501 30.9507 37.1038 30.8767 37.1512C30.8459 37.1709 30.8008 37.1997 30.7825 37.2163C30.7709 37.2471 30.7608 37.3317 30.754 37.3888C30.74 37.5065 30.7241 37.6398 30.6683 37.757C30.428 38.2607 29.6313 38.9579 29.044 39.0533C28.9902 39.062 28.939 39.0661 28.8902 39.0661Z" fill="#A5DC69"/>
<path d="M22.7369 31.0392C22.648 31.0392 22.5614 30.9938 22.5125 30.912L22.5021 30.8945C22.4291 30.7701 22.4707 30.6101 22.5951 30.537C22.7195 30.464 22.8796 30.5055 22.9527 30.63L22.9609 30.6438C23.0349 30.7676 22.9946 30.9281 22.8708 31.0021C22.8288 31.0272 22.7825 31.0392 22.7369 31.0392Z" fill="#A5DC69"/>
<path d="M32.7195 37.6791C32.6087 37.6791 32.4743 37.6452 32.3231 37.541C32.0098 37.325 31.9925 36.8864 32.0729 36.5765C32.1057 36.4502 32.1697 36.3581 32.2211 36.2841C32.279 36.2008 32.2892 36.1797 32.2857 36.1512C32.2832 36.1309 32.2752 36.1116 32.26 36.0764C32.222 35.9885 32.1584 35.8414 32.2341 35.6278C32.3385 35.3336 32.5755 35.2291 32.7485 35.1528C32.842 35.1116 32.9226 35.0761 32.9613 35.0238C33.0335 34.9264 33.0934 34.8031 33.1568 34.6725C33.1902 34.6039 33.2246 34.533 33.2617 34.4647C33.3127 34.3705 33.416 34.3173 33.5223 34.3298C33.6286 34.3425 33.7163 34.4187 33.7438 34.5222L33.907 35.1374C33.9193 35.1837 33.9186 35.2326 33.905 35.2787L33.5337 36.5299C33.5235 36.5644 33.512 36.6079 33.4989 36.6582C33.4099 36.9967 33.2756 37.5082 32.9042 37.646C32.854 37.6647 32.7917 37.6791 32.7195 37.6791ZM33.3229 35.4035C33.21 35.5204 33.0728 35.5808 32.9593 35.6309C32.8114 35.6961 32.753 35.7277 32.7266 35.8024C32.7214 35.817 32.7211 35.8232 32.7211 35.8233C32.7222 35.829 32.7322 35.8522 32.7396 35.8692C32.7619 35.9208 32.7925 35.9916 32.8043 36.0872C32.8329 36.3193 32.7229 36.4776 32.6502 36.5823C32.6168 36.6303 32.588 36.6717 32.5787 36.7077C32.5347 36.8771 32.5539 37.0655 32.6197 37.1109C32.6844 37.1555 32.7176 37.1581 32.7225 37.1562C32.7248 37.1553 32.7797 37.1334 32.8543 36.9637C32.9144 36.827 32.9582 36.6599 32.9935 36.5256C33.0073 36.4733 33.0203 36.4238 33.0328 36.3814L33.3229 35.4035Z" fill="#A5DC69"/>
</svg>
